v 0.075000 0.000000 0.000000
vn 0.000000 0.000000 -1.000000
v 0.057453 0.048209 0.000000
vn 0.000000 0.000000 -1.000000
v 0.013024 0.073861 0.000000
vn 0.000000 0.000000 -1.000000
v -0.037500 0.064952 0.000000
vn 0.000000 0.000000 -1.000000
v -0.070477 0.025652 0.000000
vn 0.000000 0.000000 -1.000000
v -0.070477 -0.025652 0.000000
vn 0.000000 0.000000 -1.000000
v -0.037500 -0.064952 0.000000
vn 0.000000 0.000000 -1.000000
v 0.013024 -0.073861 0.000000
vn 0.000000 0.000000 -1.000000
v 0.057453 -0.048209 0.000000
vn 0.000000 0.000000 -1.000000
v 0.075000 0.000000 0.000000
vn 1.000000 0.000000 0.000000
v 0.057453 0.048209 0.000000
vn 0.766044 0.642788 0.000000
v 0.013024 0.073861 0.000000
vn 0.173648 0.984808 0.000000
v -0.037500 0.064952 0.000000
vn -0.500000 0.866025 0.000000
v -0.070477 0.025652 0.000000
vn -0.939693 0.342020 0.000000
v -0.070477 -0.025652 0.000000
vn -0.939693 -0.342020 0.000000
v -0.037500 -0.064952 0.000000
vn -0.500000 -0.866025 0.000000
v 0.013024 -0.073861 0.000000
vn 0.173648 -0.984808 0.000000
v 0.057453 -0.048209 0.000000
vn 0.766044 -0.642788 0.000000
v 0.075000 0.000000 0.800000
vn 1.000000 0.000000 0.000000
v 0.057453 0.048209 0.800000
vn 0.766044 0.642788 0.000000
v 0.013024 0.073861 0.800000
vn 0.173648 0.984808 0.000000
v -0.037500 0.064952 0.800000
vn -0.500000 0.866025 0.000000
v -0.070477 0.025652 0.800000
vn -0.939693 0.342020 0.000000
v -0.070477 -0.025652 0.800000
vn -0.939693 -0.342020 0.000000
v -0.037500 -0.064952 0.800000
vn -0.500000 -0.866025 0.000000
v 0.013024 -0.073861 0.800000
vn 0.173648 -0.984808 0.000000
v 0.057453 -0.048209 0.800000
vn 0.766044 -0.642788 0.000000
v 0.075000 0.000000 0.800000
vn 0.000000 0.000000 -1.000000
v 0.057453 0.048209 0.800000
vn 0.000000 0.000000 -1.000000
v 0.013024 0.073861 0.800000
vn 0.000000 0.000000 -1.000000
v -0.037500 0.064952 0.800000
vn 0.000000 0.000000 -1.000000
v -0.070477 0.025652 0.800000
vn 0.000000 0.000000 -1.000000
v -0.070477 -0.025652 0.800000
vn 0.000000 0.000000 -1.000000
v -0.037500 -0.064952 0.800000
vn 0.000000 0.000000 -1.000000
v 0.013024 -0.073861 0.800000
vn 0.000000 0.000000 -1.000000
v 0.057453 -0.048209 0.800000
vn 0.000000 0.000000 -1.000000
v 0.112500 0.000000 0.800000
vn 0.000000 0.000000 -1.000000
v 0.086180 0.072314 0.800000
vn 0.000000 0.000000 -1.000000
v 0.019535 0.110791 0.800000
vn 0.000000 0.000000 -1.000000
v -0.056250 0.097428 0.800000
vn 0.000000 0.000000 -1.000000
v -0.105715 0.038477 0.800000
vn 0.000000 0.000000 -1.000000
v -0.105715 -0.038477 0.800000
vn 0.000000 0.000000 -1.000000
v -0.056250 -0.097428 0.800000
vn 0.000000 0.000000 -1.000000
v 0.019535 -0.110791 0.800000
vn 0.000000 0.000000 -1.000000
v 0.086180 -0.072314 0.800000
vn 0.000000 0.000000 -1.000000
v 0.000000 0.000000 1.000000
vn 0.000000 0.000000 1.000000
v 0.112500 0.000000 0.800000
vn 0.871576 0.000000 0.490261
v 0.086180 0.072314 0.800000
vn 0.667666 0.560238 0.490261
v 0.019535 0.110791 0.800000
vn 0.151348 0.858334 0.490261
v -0.056250 0.097428 0.800000
vn -0.435788 0.754807 0.490261
v -0.105715 0.038477 0.800000
vn -0.819013 0.298096 0.490261
v -0.105715 -0.038477 0.800000
vn -0.819013 -0.298096 0.490261
v -0.056250 -0.097428 0.800000
vn -0.435788 -0.754807 0.490261
v 0.019535 -0.110791 0.800000
vn 0.151348 -0.858334 0.490261
v 0.086180 -0.072314 0.800000
vn 0.667666 -0.560238 0.490261

f 1//1 3//3 2//2
f 1//1 4//4 3//3
f 1//1 5//5 4//4
f 1//1 6//6 5//5
f 1//1 7//7 6//6
f 1//1 8//8 7//7
f 1//1 9//9 8//8
f 10//10 20//20 19//19
f 10//10 11//11 20//20
f 11//11 21//21 20//20
f 11//11 12//12 21//21
f 12//12 22//22 21//21
f 12//12 13//13 22//22
f 13//13 23//23 22//22
f 13//13 14//14 23//23
f 14//14 24//24 23//23
f 14//14 15//15 24//24
f 15//15 25//25 24//24
f 15//15 16//16 25//25
f 16//16 26//26 25//25
f 16//16 17//17 26//26
f 17//17 27//27 26//26
f 17//17 18//18 27//27
f 18//18 19//19 27//27
f 18//18 10//10 19//19
f 28//28 38//38 37//37
f 28//28 29//29 38//38
f 29//29 39//39 38//38
f 29//29 30//30 39//39
f 30//30 40//40 39//39
f 30//30 31//31 40//40
f 31//31 41//41 40//40
f 31//31 32//32 41//41
f 32//32 42//42 41//41
f 32//32 33//33 42//42
f 33//33 43//43 42//42
f 33//33 34//34 43//43
f 34//34 44//44 43//43
f 34//34 35//35 44//44
f 35//35 45//45 44//44
f 35//35 36//36 45//45
f 36//36 37//37 45//45
f 36//36 28//28 37//37
f 46//46 47//47 48//48
f 46//46 48//48 49//49
f 46//46 49//49 50//50
f 46//46 50//50 51//51
f 46//46 51//51 52//52
f 46//46 52//52 53//53
f 46//46 53//53 54//54
f 46//46 54//54 55//55
f 46//46 55//55 47//47
